<mxfile>
  <diagram id="WfUA3Iw9Z-fu757x9HTe" name="Page-1">
    <mxGraphModel dx="2538" dy="619" grid="1" gridSize="10" guides="1" tooltips="1" connect="1" arrows="1" fold="1" page="1" pageScale="1" pageWidth="850" pageHeight="1100" math="0" shadow="0">
      <root>
        <mxCell id="0" />
        <mxCell id="1" parent="0" />
        <mxCell id="4" value="Ship Class" style="shape=umlLifeline;perimeter=lifelinePerimeter;whiteSpace=wrap;html=1;container=1;dropTarget=0;collapsible=0;recursiveResize=0;outlineConnect=0;portConstraint=eastwest;newEdgeStyle={&quot;edgeStyle&quot;:&quot;elbowEdgeStyle&quot;,&quot;elbow&quot;:&quot;vertical&quot;,&quot;curved&quot;:0,&quot;rounded&quot;:0};" parent="1" vertex="1">
          <mxGeometry x="540" y="310" width="100" height="310" as="geometry" />
        </mxCell>
        <mxCell id="26" value="" style="endArrow=classic;startArrow=none;endFill=1;startFill=0;endSize=8;html=1;verticalAlign=bottom;labelBackgroundColor=none;edgeStyle=orthogonalEdgeStyle;" parent="4" edge="1" target="45" source="45">
          <mxGeometry width="160" relative="1" as="geometry">
            <mxPoint x="55" y="172" as="sourcePoint" />
            <mxPoint x="55" y="188.9944134078213" as="targetPoint" />
            <Array as="points">
              <mxPoint x="130" y="172" />
              <mxPoint x="130" y="189" />
            </Array>
          </mxGeometry>
        </mxCell>
        <mxCell id="27" value="hit()" style="edgeLabel;html=1;align=center;verticalAlign=middle;resizable=0;points=[];" parent="26" vertex="1" connectable="0">
          <mxGeometry x="-0.2404" y="-2" relative="1" as="geometry">
            <mxPoint x="13" as="offset" />
          </mxGeometry>
        </mxCell>
        <mxCell id="45" value="" style="html=1;points=[[0,0,0,0,5],[0,1,0,0,-5],[1,0,0,0,5],[1,1,0,0,-5]];perimeter=orthogonalPerimeter;outlineConnect=0;targetShapes=umlLifeline;portConstraint=eastwest;newEdgeStyle={&quot;curved&quot;:0,&quot;rounded&quot;:0};" vertex="1" parent="4">
          <mxGeometry x="45" y="100" width="10" height="170" as="geometry" />
        </mxCell>
        <mxCell id="6" value="Gameboard Class" style="shape=umlLifeline;perimeter=lifelinePerimeter;whiteSpace=wrap;html=1;container=1;dropTarget=0;collapsible=0;recursiveResize=0;outlineConnect=0;portConstraint=eastwest;newEdgeStyle={&quot;edgeStyle&quot;:&quot;elbowEdgeStyle&quot;,&quot;elbow&quot;:&quot;vertical&quot;,&quot;curved&quot;:0,&quot;rounded&quot;:0};" parent="1" vertex="1">
          <mxGeometry x="300" y="310" width="100" height="540" as="geometry" />
        </mxCell>
        <mxCell id="8" value="Player" style="shape=umlActor;verticalLabelPosition=bottom;verticalAlign=top;html=1;" parent="1" vertex="1">
          <mxGeometry x="-170" y="347" width="30" height="60" as="geometry" />
        </mxCell>
        <mxCell id="12" value="" style="endArrow=classic;startArrow=none;endFill=1;startFill=0;endSize=8;html=1;verticalAlign=bottom;labelBackgroundColor=none;" parent="1" edge="1">
          <mxGeometry width="160" relative="1" as="geometry">
            <mxPoint x="-100" y="470" as="sourcePoint" />
            <mxPoint x="60" y="470" as="targetPoint" />
          </mxGeometry>
        </mxCell>
        <mxCell id="13" value="" style="endArrow=classic;startArrow=none;endFill=1;startFill=0;endSize=8;html=1;verticalAlign=bottom;labelBackgroundColor=none;dashed=1;" parent="1" edge="1">
          <mxGeometry width="160" relative="1" as="geometry">
            <mxPoint x="-100" y="490" as="sourcePoint" />
            <mxPoint x="60" y="490" as="targetPoint" />
          </mxGeometry>
        </mxCell>
        <mxCell id="18" value="If Hit" style="shape=umlFrame;whiteSpace=wrap;html=1;pointerEvents=0;recursiveResize=0;container=1;collapsible=0;width=90;height=30;" parent="1" vertex="1">
          <mxGeometry x="190" y="420" width="510" height="150" as="geometry" />
        </mxCell>
        <mxCell id="7" value="" style="html=1;points=[[0,0,0,0,5],[0,1,0,0,-5],[1,0,0,0,5],[1,1,0,0,-5]];perimeter=orthogonalPerimeter;outlineConnect=0;targetShapes=umlLifeline;portConstraint=eastwest;newEdgeStyle={&quot;curved&quot;:0,&quot;rounded&quot;:0};" parent="18" vertex="1">
          <mxGeometry x="155" y="-50" width="10" height="250" as="geometry" />
        </mxCell>
        <mxCell id="19" value="(Hit Ship)" style="text;html=1;" parent="18" vertex="1">
          <mxGeometry width="100" height="20" relative="1" as="geometry">
            <mxPoint x="20" y="40" as="offset" />
          </mxGeometry>
        </mxCell>
        <mxCell id="20" value="(Else)" style="line;strokeWidth=1;dashed=1;labelPosition=center;verticalLabelPosition=bottom;align=left;verticalAlign=top;spacingLeft=20;spacingTop=15;html=1;whiteSpace=wrap;" parent="18" vertex="1">
          <mxGeometry y="84" width="510" height="10" as="geometry" />
        </mxCell>
        <mxCell id="24" value="" style="endArrow=classic;startArrow=none;endFill=1;startFill=0;endSize=8;html=1;verticalAlign=bottom;labelBackgroundColor=none;edgeStyle=orthogonalEdgeStyle;" parent="18" source="7" target="7" edge="1">
          <mxGeometry width="160" relative="1" as="geometry">
            <mxPoint x="175.00034482758616" y="104" as="sourcePoint" />
            <mxPoint x="175.19" y="121" as="targetPoint" />
            <Array as="points">
              <mxPoint x="235" y="104" />
              <mxPoint x="235" y="121" />
            </Array>
          </mxGeometry>
        </mxCell>
        <mxCell id="25" value="recordCoordinates(x,y)" style="edgeLabel;html=1;align=center;verticalAlign=middle;resizable=0;points=[];" parent="24" vertex="1" connectable="0">
          <mxGeometry x="-0.2404" y="-2" relative="1" as="geometry">
            <mxPoint x="28" as="offset" />
          </mxGeometry>
        </mxCell>
        <mxCell id="16" value="" style="endArrow=classic;startArrow=none;endFill=1;startFill=0;endSize=8;html=1;verticalAlign=bottom;labelBackgroundColor=none;edgeStyle=orthogonalEdgeStyle;" parent="18" source="7" target="7" edge="1">
          <mxGeometry width="160" relative="1" as="geometry">
            <mxPoint x="175.00034482758616" y="-27" as="sourcePoint" />
            <mxPoint x="175.46011494252872" y="-10.01149425287349" as="targetPoint" />
            <Array as="points">
              <mxPoint x="235" y="-27" />
              <mxPoint x="235" y="-10" />
            </Array>
          </mxGeometry>
        </mxCell>
        <mxCell id="17" value="receiveAttack(x,y)" style="edgeLabel;html=1;align=center;verticalAlign=middle;resizable=0;points=[];" parent="16" vertex="1" connectable="0">
          <mxGeometry x="-0.2404" y="-2" relative="1" as="geometry">
            <mxPoint x="28" as="offset" />
          </mxGeometry>
        </mxCell>
        <mxCell id="14" value="" style="endArrow=classic;startArrow=none;endFill=1;startFill=0;endSize=8;html=1;verticalAlign=bottom;labelBackgroundColor=none;" parent="1" source="8" target="46" edge="1">
          <mxGeometry width="160" relative="1" as="geometry">
            <mxPoint x="-230" y="299.58" as="sourcePoint" />
            <mxPoint x="-110" y="300" as="targetPoint" />
          </mxGeometry>
        </mxCell>
        <mxCell id="15" value="Attack&amp;nbsp;&lt;div&gt;Coordinates (x,y)&lt;/div&gt;" style="edgeLabel;html=1;align=center;verticalAlign=middle;resizable=0;points=[];" parent="14" vertex="1" connectable="0">
          <mxGeometry x="-0.1244" y="1" relative="1" as="geometry">
            <mxPoint x="-16" y="-14" as="offset" />
          </mxGeometry>
        </mxCell>
        <mxCell id="22" value="" style="endArrow=classic;startArrow=none;endFill=1;startFill=0;endSize=8;html=1;verticalAlign=bottom;labelBackgroundColor=none;" parent="1" target="45" edge="1">
          <mxGeometry width="160" relative="1" as="geometry">
            <mxPoint x="355" y="475" as="sourcePoint" />
            <mxPoint x="585" y="475" as="targetPoint" />
          </mxGeometry>
        </mxCell>
        <mxCell id="23" value="sends hit message" style="edgeLabel;html=1;align=center;verticalAlign=middle;resizable=0;points=[];" parent="22" vertex="1" connectable="0">
          <mxGeometry x="-0.6566" relative="1" as="geometry">
            <mxPoint x="49" as="offset" />
          </mxGeometry>
        </mxCell>
        <mxCell id="33" value="DOM Controller" style="shape=umlLifeline;perimeter=lifelinePerimeter;whiteSpace=wrap;html=1;container=1;dropTarget=0;collapsible=0;recursiveResize=0;outlineConnect=0;portConstraint=eastwest;newEdgeStyle={&quot;curved&quot;:0,&quot;rounded&quot;:0};" parent="1" vertex="1">
          <mxGeometry x="720" y="310" width="100" height="540" as="geometry" />
        </mxCell>
        <mxCell id="47" value="" style="html=1;points=[[0,0,0,0,5],[0,1,0,0,-5],[1,0,0,0,5],[1,1,0,0,-5]];perimeter=orthogonalPerimeter;outlineConnect=0;targetShapes=umlLifeline;portConstraint=eastwest;newEdgeStyle={&quot;curved&quot;:0,&quot;rounded&quot;:0};" vertex="1" parent="33">
          <mxGeometry x="45" y="360" width="10" height="170" as="geometry" />
        </mxCell>
        <mxCell id="42" value="" style="endArrow=classic;startArrow=none;endFill=1;startFill=0;endSize=8;html=1;verticalAlign=bottom;labelBackgroundColor=none;edgeStyle=orthogonalEdgeStyle;" edge="1" parent="33" source="47" target="47">
          <mxGeometry width="160" relative="1" as="geometry">
            <mxPoint x="50" y="409" as="sourcePoint" />
            <mxPoint x="50" y="425.9944134078213" as="targetPoint" />
            <Array as="points">
              <mxPoint x="125" y="409" />
              <mxPoint x="125" y="426" />
            </Array>
          </mxGeometry>
        </mxCell>
        <mxCell id="44" value="updateSquare(x,y)" style="edgeLabel;html=1;align=center;verticalAlign=middle;resizable=0;points=[];" vertex="1" connectable="0" parent="42">
          <mxGeometry x="-0.0425" y="4" relative="1" as="geometry">
            <mxPoint x="1" y="-5" as="offset" />
          </mxGeometry>
        </mxCell>
        <mxCell id="34" value="Gamecontroller Class" style="shape=umlLifeline;perimeter=lifelinePerimeter;whiteSpace=wrap;html=1;container=1;dropTarget=0;collapsible=0;recursiveResize=0;outlineConnect=0;portConstraint=eastwest;newEdgeStyle={&quot;curved&quot;:0,&quot;rounded&quot;:0};" vertex="1" parent="1">
          <mxGeometry x="40" y="310" width="100" height="540" as="geometry" />
        </mxCell>
        <mxCell id="46" value="" style="html=1;points=[[0,0,0,0,5],[0,1,0,0,-5],[1,0,0,0,5],[1,1,0,0,-5]];perimeter=orthogonalPerimeter;outlineConnect=0;targetShapes=umlLifeline;portConstraint=eastwest;newEdgeStyle={&quot;curved&quot;:0,&quot;rounded&quot;:0};" vertex="1" parent="34">
          <mxGeometry x="45" y="60" width="10" height="480" as="geometry" />
        </mxCell>
        <mxCell id="48" value="" style="endArrow=classic;startArrow=none;endFill=1;startFill=0;endSize=8;html=1;verticalAlign=bottom;labelBackgroundColor=none;edgeStyle=orthogonalEdgeStyle;" edge="1" parent="34" source="46" target="46">
          <mxGeometry width="160" relative="1" as="geometry">
            <mxPoint x="75" y="340" as="sourcePoint" />
            <mxPoint x="75" y="357" as="targetPoint" />
            <Array as="points">
              <mxPoint x="150" y="340" />
              <mxPoint x="150" y="357" />
            </Array>
          </mxGeometry>
        </mxCell>
        <mxCell id="49" value="processResults()" style="edgeLabel;html=1;align=center;verticalAlign=middle;resizable=0;points=[];" vertex="1" connectable="0" parent="48">
          <mxGeometry x="-0.2404" y="-2" relative="1" as="geometry">
            <mxPoint x="13" as="offset" />
          </mxGeometry>
        </mxCell>
        <mxCell id="35" value="" style="endArrow=classic;startArrow=none;endFill=1;startFill=0;endSize=8;html=1;verticalAlign=bottom;labelBackgroundColor=none;" edge="1" parent="1" source="46">
          <mxGeometry width="160" relative="1" as="geometry">
            <mxPoint x="90.39999999999986" y="384.65999999999997" as="sourcePoint" />
            <mxPoint x="345" y="384.65999999999997" as="targetPoint" />
          </mxGeometry>
        </mxCell>
        <mxCell id="36" value="sendAttack(x,y)" style="edgeLabel;html=1;align=center;verticalAlign=middle;resizable=0;points=[];" vertex="1" connectable="0" parent="35">
          <mxGeometry x="0.0113" relative="1" as="geometry">
            <mxPoint as="offset" />
          </mxGeometry>
        </mxCell>
        <mxCell id="37" value="" style="endArrow=classic;startArrow=none;endFill=1;startFill=0;endSize=8;html=1;verticalAlign=bottom;labelBackgroundColor=none;dashed=1;" edge="1" parent="1" target="46">
          <mxGeometry width="160" relative="1" as="geometry">
            <mxPoint x="320" y="610" as="sourcePoint" />
            <mxPoint x="110" y="610" as="targetPoint" />
            <Array as="points">
              <mxPoint x="350" y="610" />
            </Array>
          </mxGeometry>
        </mxCell>
        <mxCell id="38" value="Attack results (hit/miss)&lt;div&gt;&lt;div&gt;return { hit: true, allSunk: true/false }&lt;/div&gt;&lt;/div&gt;" style="edgeLabel;html=1;align=center;verticalAlign=middle;resizable=0;points=[];" vertex="1" connectable="0" parent="37">
          <mxGeometry x="0.2642" y="-2" relative="1" as="geometry">
            <mxPoint x="35" y="2" as="offset" />
          </mxGeometry>
        </mxCell>
        <mxCell id="40" value="" style="endArrow=classic;startArrow=none;endFill=1;startFill=0;endSize=8;html=1;verticalAlign=bottom;labelBackgroundColor=none;" edge="1" parent="1">
          <mxGeometry width="160" relative="1" as="geometry">
            <mxPoint x="95" y="703" as="sourcePoint" />
            <mxPoint x="765" y="703" as="targetPoint" />
          </mxGeometry>
        </mxCell>
        <mxCell id="41" value="updateSquare(player, x, y)" style="edgeLabel;html=1;align=center;verticalAlign=middle;resizable=0;points=[];" vertex="1" connectable="0" parent="40">
          <mxGeometry x="0.874" y="-1" relative="1" as="geometry">
            <mxPoint x="-131" y="-1" as="offset" />
          </mxGeometry>
        </mxCell>
        <mxCell id="67" value="Check if all ships sunk" style="shape=umlFrame;whiteSpace=wrap;html=1;pointerEvents=0;recursiveResize=0;container=1;collapsible=0;width=100;height=30;" vertex="1" parent="1">
          <mxGeometry x="-110" y="680" width="1020" height="150" as="geometry" />
        </mxCell>
        <mxCell id="68" value="&lt;div&gt;&lt;font color=&quot;#000000&quot;&gt;allSunk() → { allSunk: false }&lt;/font&gt;&lt;/div&gt;&lt;div&gt;&lt;br&gt;&lt;/div&gt;" style="text;html=1;" vertex="1" parent="67">
          <mxGeometry width="100" height="20" relative="1" as="geometry">
            <mxPoint x="15" y="40" as="offset" />
          </mxGeometry>
        </mxCell>
        <mxCell id="74" value="&lt;div&gt;&lt;font color=&quot;#000000&quot;&gt;(Else)&lt;/font&gt;&lt;/div&gt;" style="text;html=1;" vertex="1" parent="67">
          <mxGeometry x="10" y="100" width="100" height="20" as="geometry" />
        </mxCell>
        <mxCell id="73" value="" style="endArrow=none;startArrow=none;endFill=0;startFill=0;endSize=8;html=1;verticalAlign=bottom;labelBackgroundColor=none;dashed=1;exitX=0.002;exitY=0.7;exitDx=0;exitDy=0;exitPerimeter=0;entryX=1.001;entryY=0.666;entryDx=0;entryDy=0;entryPerimeter=0;" edge="1" parent="67">
          <mxGeometry width="160" relative="1" as="geometry">
            <mxPoint x="1.0199999999999676" y="95.10000000000002" as="sourcePoint" />
            <mxPoint x="1020" y="89.99999999999989" as="targetPoint" />
          </mxGeometry>
        </mxCell>
        <mxCell id="70" value="" style="endArrow=classic;startArrow=none;endFill=1;startFill=0;endSize=8;html=1;verticalAlign=bottom;labelBackgroundColor=none;" edge="1" parent="1">
          <mxGeometry width="160" relative="1" as="geometry">
            <mxPoint x="95" y="810" as="sourcePoint" />
            <mxPoint x="765" y="810" as="targetPoint" />
          </mxGeometry>
        </mxCell>
        <mxCell id="71" value="gameOverMessage()" style="edgeLabel;html=1;align=center;verticalAlign=middle;resizable=0;points=[];" vertex="1" connectable="0" parent="70">
          <mxGeometry x="0.874" y="-1" relative="1" as="geometry">
            <mxPoint x="-131" y="-1" as="offset" />
          </mxGeometry>
        </mxCell>
      </root>
    </mxGraphModel>
  </diagram>
</mxfile>
